<?xml version="1.0"?><svg xmlns="http://www.w3.org/2000/svg" xmlns:xlink="http://www.w3.org/1999/xlink" viewBox="-.38  286.54 140.27" preserveAspectRatio="xMidYMid" width="100%" height="100%"><clipPath id="459"><rect x="0.5" y="0.5" width="539" height="719" /></clipPath><g id="drawing"><rect x="-.38" y="" width="100%" height="100%" fill="rgb(255, 255, 255)" /><g id="page" clip-path="url(#459)"><g><text xml:space="preserve" text-anchor="start" text-rendering="geometricPrecision"><tspan x="126.12" y="8.46" font-family="Arial" font-size="10" fill="rgb(0, 0, 0)">OH</tspan></text></g><g><text xml:space="preserve" text-anchor="end" text-rendering="geometricPrecision"><tspan x="81.97" y="98.46" font-family="Arial" font-size="10" fill="rgb(0, 0, 0)">HO</tspan></text></g><g id="Solid"><path d="M103.55 50.12 L103.55 50.12 L104.05 49.83 L104.55 50.12 L104.55 79.54 L104.05 79.83 L103.55 79.54 Z" stroke="rgb(0, 0, 0)" stroke-width="0" fill-rule="evenodd" stroke-linejoin="miter" fill="rgb(0, 0, 0)" shape-rendering="geometricPrecision" /><line x1="107.65" y1="51.91" x2="107.65" y2="77.75" stroke="rgb(0, 0, 0)" stroke-width="1" shape-rendering="auto" /></g><g id="Solid"><path d="M104.05 80.41 L104.05 80.41 L104.05 79.83 L104.55 79.54 L130.03 94.25 L130.03 94.83 L130.03 95.41 Z" stroke="rgb(0, 0, 0)" stroke-width="0" fill-rule="evenodd" stroke-linejoin="miter" fill="rgb(0, 0, 0)" shape-rendering="geometricPrecision" /></g><g id="Solid"><path d="M130.03 95.41 L130.03 95.41 L130.03 94.83 L130.03 94.25 L155.51 79.54 L156.01 79.83 L156.01 80.41 Z" stroke="rgb(0, 0, 0)" stroke-width="0" fill-rule="evenodd" stroke-linejoin="miter" fill="rgb(0, 0, 0)" shape-rendering="geometricPrecision" /><line x1="130.03" y1="90.67" x2="152.41" y2="77.75" stroke="rgb(0, 0, 0)" stroke-width="1" shape-rendering="auto" /></g><g id="Solid"><path d="M156.51 79.54 L156.51 79.54 L156.01 79.83 L155.51 79.54 L155.51 50.12 L156.01 49.83 L156.51 49.54 Z" stroke="rgb(0, 0, 0)" stroke-width="0" fill-rule="evenodd" stroke-linejoin="miter" fill="rgb(0, 0, 0)" shape-rendering="geometricPrecision" /></g><g id="Solid"><path d="M156.51 49.54 L156.51 49.54 L156.01 49.83 L155.51 50.12 L130.03 35.41 L130.03 34.83 L130.53 34.54 Z" stroke="rgb(0, 0, 0)" stroke-width="0" fill-rule="evenodd" stroke-linejoin="miter" fill="rgb(0, 0, 0)" shape-rendering="geometricPrecision" /><line x1="152.41" y1="51.91" x2="130.03" y2="38.99" stroke="rgb(0, 0, 0)" stroke-width="1" shape-rendering="auto" /></g><g id="Solid"><path d="M129.53 34.54 L129.53 34.54 L130.03 34.83 L130.03 35.41 L104.55 50.12 L104.05 49.83 L104.05 49.25 Z" stroke="rgb(0, 0, 0)" stroke-width="0" fill-rule="evenodd" stroke-linejoin="miter" fill="rgb(0, 0, 0)" shape-rendering="geometricPrecision" /></g><g id="Solid"><path d="M130.53 34.54 L130.53 34.54 L130.03 34.83 L129.53 34.54 L129.53 10.6 L130.03 10.6 L130.53 10.6 Z" stroke="rgb(0, 0, 0)" stroke-width="0" fill-rule="evenodd" stroke-linejoin="miter" fill="rgb(0, 0, 0)" shape-rendering="geometricPrecision" /></g><g id="Solid"><path d="M103.55 79.54 L103.55 79.54 L104.05 79.83 L104.05 80.41 L83.38 92.34 L83.13 91.91 L82.88 91.47 Z" stroke="rgb(0, 0, 0)" stroke-width="0" fill-rule="evenodd" stroke-linejoin="miter" fill="rgb(0, 0, 0)" shape-rendering="geometricPrecision" /></g><g id="Solid"><path d="M104.05 49.25 L104.05 49.25 L104.05 49.83 L103.55 50.12 L78.07 35.41 L78.07 34.83 L78.07 34.25 Z" stroke="rgb(0, 0, 0)" stroke-width="0" fill-rule="evenodd" stroke-linejoin="miter" fill="rgb(0, 0, 0)" shape-rendering="geometricPrecision" /></g><g id="Solid"><path d="M78.07 34.25 L78.07 34.25 L78.07 34.83 L78.07 35.41 L52.08 50.41 L52.08 49.83 L52.08 49.25 Z" stroke="rgb(0, 0, 0)" stroke-width="0" fill-rule="evenodd" stroke-linejoin="miter" fill="rgb(0, 0, 0)" shape-rendering="geometricPrecision" /></g><g id="Solid"><path d="M52.08 49.25 L52.08 49.25 L52.08 49.83 L52.08 50.41 L26.1 35.41 L26.1 34.83 L26.6 34.54 Z" stroke="rgb(0, 0, 0)" stroke-width="0" fill-rule="evenodd" stroke-linejoin="miter" fill="rgb(0, 0, 0)" shape-rendering="geometricPrecision" /><line x1="52.08" y1="45.67" x2="29.7" y2="32.75" stroke="rgb(0, 0, 0)" stroke-width="1" shape-rendering="auto" /></g><g id="Solid"><path d="M26.6 34.54 L26.6 34.54 L26.1 34.83 L25.6 34.54 L25.6 4.83 L26.1 4.83 L26.6 4.83 Z" stroke="rgb(0, 0, 0)" stroke-width="0" fill-rule="evenodd" stroke-linejoin="miter" fill="rgb(0, 0, 0)" shape-rendering="geometricPrecision" /></g><g id="Solid"><path d="M156.01 80.41 L156.01 80.41 L156.01 79.83 L156.51 79.54 L181.99 94.25 L181.99 94.83 L181.99 95.41 Z" stroke="rgb(0, 0, 0)" stroke-width="0" fill-rule="evenodd" stroke-linejoin="miter" fill="rgb(0, 0, 0)" shape-rendering="geometricPrecision" /></g><g id="Solid"><path d="M181.99 95.41 L181.99 95.41 L181.99 94.83 L181.99 94.25 L207.97 79.25 L207.97 79.83 L207.97 80.41 Z" stroke="rgb(0, 0, 0)" stroke-width="0" fill-rule="evenodd" stroke-linejoin="miter" fill="rgb(0, 0, 0)" shape-rendering="geometricPrecision" /></g><g id="Solid"><path d="M207.97 80.41 L207.97 80.41 L207.97 79.83 L207.97 79.25 L233.95 94.25 L233.95 94.83 L233.95 95.41 Z" stroke="rgb(0, 0, 0)" stroke-width="0" fill-rule="evenodd" stroke-linejoin="miter" fill="rgb(0, 0, 0)" shape-rendering="geometricPrecision" /></g><g id="Solid"><path d="M233.95 95.41 L233.95 95.41 L233.95 94.83 L233.95 94.25 L259.93 79.25 L259.93 79.83 L259.93 80.41 Z" stroke="rgb(0, 0, 0)" stroke-width="0" fill-rule="evenodd" stroke-linejoin="miter" fill="rgb(0, 0, 0)" shape-rendering="geometricPrecision" /></g><g id="Solid"><path d="M259.93 80.41 L259.93 80.41 L259.93 79.83 L259.93 79.25 L286.16 94.4 L285.91 94.83 L285.66 95.26 Z" stroke="rgb(0, 0, 0)" stroke-width="0" fill-rule="evenodd" stroke-linejoin="miter" fill="rgb(0, 0, 0)" shape-rendering="geometricPrecision" /></g><g id="Solid"><path d="M25.6 34.54 L25.6 34.54 L26.1 34.83 L26.1 35.41 L.63 50.12 L.13 49.83 L-.37 49.54 Z" stroke="rgb(0, 0, 0)" stroke-width="0" fill-rule="evenodd" stroke-linejoin="miter" fill="rgb(0, 0, 0)" shape-rendering="geometricPrecision" /></g><g id="Solid"><path d="M-.37 49.54 L-.37 49.54 L.13 49.83 L.63 50.12 L.63 79.54 L.13 79.83 L-.37 80.12 Z" stroke="rgb(0, 0, 0)" stroke-width="0" fill-rule="evenodd" stroke-linejoin="miter" fill="rgb(0, 0, 0)" shape-rendering="geometricPrecision" /></g><g id="Solid"><path d="M-.37 80.12 L-.37 80.12 L.13 79.83 L.63 79.54 L26.6 94.54 L26.1 94.83 L25.6 95.12 Z" stroke="rgb(0, 0, 0)" stroke-width="0" fill-rule="evenodd" stroke-linejoin="miter" fill="rgb(0, 0, 0)" shape-rendering="geometricPrecision" /></g><g id="Solid"><path d="M25.6 95.12 L25.6 95.12 L26.1 94.83 L26.6 94.54 L26.6 124.54 L26.1 124.83 L25.6 124.54 Z" stroke="rgb(0, 0, 0)" stroke-width="0" fill-rule="evenodd" stroke-linejoin="miter" fill="rgb(0, 0, 0)" shape-rendering="geometricPrecision" /><line x1="22.5" y1="96.91" x2="22.5" y2="122.75" stroke="rgb(0, 0, 0)" stroke-width="1" shape-rendering="auto" /></g><g id="Solid"><path d="M26.1 125.41 L26.1 125.41 L26.1 124.83 L26.6 124.54 L52.33 139.4 L52.08 139.83 L51.83 140.26 Z" stroke="rgb(0, 0, 0)" stroke-width="0" fill-rule="evenodd" stroke-linejoin="miter" fill="rgb(0, 0, 0)" shape-rendering="geometricPrecision" /></g><g id="Solid"><path d="M25.6 124.54 L25.6 124.54 L26.1 124.83 L26.1 125.41 L.38 140.26 L.13 139.83 L-.12 139.4 Z" stroke="rgb(0, 0, 0)" stroke-width="0" fill-rule="evenodd" stroke-linejoin="miter" fill="rgb(0, 0, 0)" shape-rendering="geometricPrecision" /></g></g></g></svg>