<?xml version="1.0" encoding="utf-8"?>
<!-- Generator: Adobe Illustrator 26.0.1, SVG Export Plug-In . SVG Version: 6.00 Build 0)  -->
<svg version="1.1" id="Layer_1" xmlns="http://www.w3.org/2000/svg" xmlns:xlink="http://www.w3.org/1999/xlink" x="0px" y="0px"
	 viewBox="0 0 500 500" style="enable-background:new 0 0 500 500;" xml:space="preserve">
<style type="text/css">
	.st0{fill:#E51E79;}
	.st1{fill:#BFAA91;}
	.st2{fill:#B293C1;}
</style>
<path class="st0" d="M213.6,91.8v212.5c0,18.4-14.9,33.3-33.3,33.3H63.1c-18.4,0-33.3-14.9-33.3-33.3V91.8C29.9,41.1,71,0,121.7,0h0
	C172.5,0,213.6,41.1,213.6,91.8z"/>
<path class="st1" d="M141,341.7v136.3c0,10.6-8.6,19.2-19.2,19.2h0c-10.6,0-19.2-8.6-19.2-19.2V341.7H141z"/>
<path class="st1" d="M397.5,344.5v136.3c0,10.6-8.6,19.2-19.2,19.2s-19.2-8.6-19.2-19.2V344.5H397.5z"/>
<path class="st0" d="M286.4,128.8V94.7c0-50.7,41.1-91.8,91.8-91.8h0c50.7,0,91.8,41.1,91.8,91.8v50.2c-4,1.8-8.8,2.4-13,1.4
	c-8.1-1.9-14.9-7.4-21.5-12.8c-1.2-1-2.4-2-3.7-3c-24.6-19.5-36.6-8.7-48.1,1.7c-5.7,5.1-11,10-17.9,11.4c-9.8,2-18.6-3.5-27.9-9.2
	c-4.2-2.6-8.6-5.3-13-7.3c-11.2-4.9-24.6-4.6-36.9,0.8C287.5,128.2,287,128.5,286.4,128.8z"/>
<path class="st2" d="M470.1,147.5v159.6c0,18.4-14.9,33.3-33.3,33.3H319.7c-18.4,0-33.3-14.9-33.3-33.3V131.4
	c0.9-0.4,1.7-0.9,2.6-1.3c11.7-5.1,24.4-5.4,35-0.8c4.3,1.9,8.6,4.6,12.7,7.1c9.3,5.8,18.9,11.8,29.6,9.6c7.5-1.5,13.4-6.8,19-12
	c11.3-10.2,21.9-19.8,45-1.6c1.2,1,2.4,2,3.6,2.9c6.8,5.5,13.8,11.3,22.5,13.3C461,149.7,465.9,149.2,470.1,147.5z"/>
</svg>
