<?xml version="1.0" encoding="utf-8"?>
<!-- Generator: Adobe Illustrator 27.9.5, SVG Export Plug-In . SVG Version: 9.03 Build 54986)  -->
<svg version="1.1" id="Layer_1" xmlns="http://www.w3.org/2000/svg" xmlns:xlink="http://www.w3.org/1999/xlink" x="0px" y="0px"
	 viewBox="0 0 183.7 500" style="enable-background:new 0 0 183.7 500;" xml:space="preserve">
<style type="text/css">
	.st0{fill:#BFAA91;}
	.st1{fill:#E51E79;}
	.st2{fill:#B293C1;}
</style>
<path class="st0" d="M111.1,344.5v136.3c0,10.6-8.6,19.2-19.2,19.2s-19.2-8.6-19.2-19.2V344.5H111.1z"/>
<path class="st1" d="M0,128.8V94.7C0,44,41.1,2.9,91.8,2.9l0,0c50.7,0,91.8,41.1,91.8,91.8v50.2c-4,1.8-8.8,2.4-13,1.4
	c-8.1-1.9-14.9-7.4-21.5-12.8c-1.2-1-2.4-2-3.7-3c-24.6-19.5-36.6-8.7-48.1,1.7c-5.7,5.1-11,10-17.9,11.4c-9.8,2-18.6-3.5-27.9-9.2
	c-4.2-2.6-8.6-5.3-13-7.3c-11.2-4.9-24.6-4.6-36.9,0.8C1.1,128.2,0.6,128.5,0,128.8z"/>
<path class="st2" d="M183.7,147.5v159.6c0,18.4-14.9,33.3-33.3,33.3H33.3C14.9,340.4,0,325.5,0,307.1V131.4c0.9-0.4,1.7-0.9,2.6-1.3
	c11.7-5.1,24.4-5.4,35-0.8c4.3,1.9,8.6,4.6,12.7,7.1c9.3,5.8,18.9,11.8,29.6,9.6c7.5-1.5,13.4-6.8,19-12c11.3-10.2,21.9-19.8,45-1.6
	c1.2,1,2.4,2,3.6,2.9c6.8,5.5,13.8,11.3,22.5,13.3C174.6,149.7,179.5,149.2,183.7,147.5z"/>
</svg>
